<svg xmlns="http://www.w3.org/2000/svg" width="20" height="20" viewBox="0 0 25 25" fill="none">
  <path d="M7.73535 16.9454L0.903328 23.7781L2.25175 25.0002L9.04782 18.2045L7.73535 16.9454ZM9.73821 9.26091L13.5983 5.28721V3.97622L9.73821 0.00252724L8.4671 1.31166L10.7918 3.70588H4.49913C3.36058 3.70474 2.26403 4.14865 1.43096 4.94794C0.597892 5.74724 0.0903907 6.84236 0.0109591 8.01211C-0.0684725 9.18186 0.286085 10.3391 1.00302 11.25C1.71995 12.161 2.74584 12.7577 3.87346 12.9198C3.74137 12.275 3.65722 11.6206 3.62175 10.9626C3.01755 10.7494 2.50643 10.3222 2.17942 9.75715C1.85241 9.19211 1.73073 8.52587 1.83604 7.87708C1.94136 7.22828 2.26684 6.63904 2.75452 6.21427C3.2422 5.78951 3.86043 5.55679 4.49913 5.55756H10.7918L8.4671 7.95177L9.73821 9.26091Z" fill="#FF0101"/>
  <path d="M13.9147 1.90943L12.4314 0.381792C14.4183 -0.194918 16.5306 -0.116657 18.4721 0.605597C20.4136 1.32785 22.0869 2.65787 23.2573 4.40912C24.4277 6.16036 25.0365 8.24499 24.9983 10.3706C24.9601 12.4963 24.2769 14.5563 23.0445 16.2618C21.8501 17.9172 20.196 19.1602 18.3008 19.8262C16.4056 20.4923 14.3587 20.55 12.431 19.9919C10.5032 19.4337 8.78545 18.2859 7.50491 16.7003C6.22436 15.1147 5.4414 13.1661 5.25961 11.1123H7.03055C7.20937 12.7705 7.86532 14.3358 8.91418 15.6073C9.96304 16.8788 11.357 17.7985 12.917 18.2482C14.477 18.6979 16.1319 18.6571 17.6693 18.1312C19.2066 17.6052 20.5563 16.618 21.545 15.2964C22.5336 13.9747 23.1162 12.3789 23.2179 10.7137C23.3196 9.04858 22.9357 7.39015 22.1156 5.95132C21.2955 4.51249 20.0766 3.35893 18.6153 2.63873C17.1541 1.91853 15.5171 1.66456 13.9147 1.90943Z" fill="#FF0101"/>
</svg>